<?xml version="1.0" encoding="utf-8"?>
<!-- Generator: Adobe Illustrator 16.0.0, SVG Export Plug-In . SVG Version: 6.00 Build 0)  -->
<!DOCTYPE svg PUBLIC "-//W3C//DTD SVG 1.1//EN" "http://www.w3.org/Graphics/SVG/1.1/DTD/svg11.dtd">
<svg version="1.1" id="Layer_1" xmlns:sketch="http://www.bohemiancoding.com/sketch/ns"
	 xmlns="http://www.w3.org/2000/svg" xmlns:xlink="http://www.w3.org/1999/xlink" x="0px" y="0px" width="512px" height="512px"
	 viewBox="0 0 512 512" enable-background="new 0 0 512 512" xml:space="preserve">
<title>hamburger_black</title>
<desc>Created with Sketch.</desc>
<g id="Page-1" sketch:type="MSPage">
	<g id="tweegs-pagina-produttore-profilo" transform="translate(-1121.000000, -16.000000)" sketch:type="MSArtboardGroup">
		<g id="menu-internal" transform="translate(0.000000, -1.000000)" sketch:type="MSLayerGroup">
			<path id="hamburger_black" sketch:type="MSShapeGroup" fill="#32303F" d="M1593.209,407.615H1160.8
				c-10.748,0-19.469,8.721-19.469,19.477c0,10.757,8.722,19.479,19.469,19.479h432.407c10.756,0,19.463-8.722,19.463-19.479
				C1612.67,416.336,1603.963,407.615,1593.209,407.615 M1593.209,253.53H1160.8c-10.748,0-19.469,8.714-19.469,19.47
				c0,10.756,8.722,19.478,19.469,19.478h432.407c10.756,0,19.463-8.722,19.463-19.478
				C1612.67,262.244,1603.963,253.53,1593.209,253.53 M1141.332,118.898c0-10.748,8.722-19.469,19.469-19.469h432.407
				c10.756,0,19.463,8.722,19.463,19.469c0,10.756-8.707,19.478-19.463,19.478H1160.8
				C1150.053,138.376,1141.332,129.655,1141.332,118.898"/>
		</g>
	</g>
</g>
</svg>
